<svg xmlns="http://www.w3.org/2000/svg" viewBox="0 0 128 128">
  <path fill-rule="evenodd" clip-rule="evenodd" fill="#3A4D54" d="M73.8 50.8h11.3v11.5h5.7c2.6 0 5.3-.5 7.8-1.3 1.2-.4 2.6-1 3.8-1.7-1.6-2.1-2.4-4.7-2.6-7.3-.3-3.5.4-8.1 2.8-10.8l1.2-1.4 1.4 1.1c3.6 2.9 6.5 6.8 7.1 11.4 4.3-1.3 9.3-1 13.1 1.2l1.5.9-.8 1.6c-3.2 6.2-9.9 8.2-16.4 7.8-9.8 24.3-31 35.8-56.8 35.8-13.3 0-25.5-5-32.5-16.8l-.1-.2-1-2.1c-2.4-5.2-3.1-10.9-2.6-16.6l.2-1.7h9.6V50.8h11.3V39.6h22.5V28.3h13.5v22.5z"/>
  <path fill="#00AADA" d="M110.4 55.1c.8-5.9-3.6-10.5-6.4-12.7-3.1 3.6-3.6 13.2 1.3 17.2-2.8 2.4-8.5 4.7-14.5 4.7H18.6c-.6 6.2.5 12.5 3.4 18.1 3.4 6.6 8.5 11.1 15.1 13.6 8.1 3 17.3 3.6 26.2 3.1 8-.5 15.9-2 23.2-5.1 6.3-2.7 12.1-6.4 16.8-11.4 6.3-6.7 10.1-14.6 12.5-23.1 5.4.1 11.1-1.1 13.7-5.6-2.4-1.6-8-2.1-11.8-.6-.3-.1-.3.6-.3 1.8z"/>
  <path fill="#28B8EB" d="M110.4 55.1c.8-5.9-3.6-10.5-6.4-12.7-3.1 3.6-3.6 13.2 1.3 17.2-2.8 2.4-8.5 4.7-14.5 4.7h-68c-.3 9.5 3.2 16.7 9.5 21.9 7.6 6.3 19.1 9.1 32.1 8.5 21.7-1 38.5-10.8 46.6-29.9 5.4.1 11.1-1.1 13.7-5.6-2.4-1.6-8-2.1-11.8-.6-.3-.1-.3.6-.3 1.8-.1-.5-.2-.9-.2-1.3z"/>
  <path fill="#028BB8" d="M18.9 71.3c.3 3.8 1.2 7.6 3.1 11.3 3.4 6.6 8.5 11.1 15.1 13.6 8.1 3 17.3 3.6 26.2 3.1 8-.5 15.9-2 23.2-5.1 6.3-2.7 12.1-6.4 16.8-11.4 2.1-2.2 3.9-4.6 5.6-7.1-3.3 2.5-7.1 4.6-11.4 6.3-7.3 3-15.2 4.6-23.2 5.1-8.9.5-18.1-.1-26.2-3.1-6.1-2.3-11-6.4-14.3-12.3-.9-1.6-1.6-3.4-2.2-5.3-3.8.1-9.1.1-12.7 4.9z"/>
  <path fill="#019BC6" d="M23.5 71.8c1.1 5.8 4.1 11.2 9 15 7.6 6.3 19.1 9.1 32.1 8.5 17.6-.8 32-7.5 40.9-20.7-3.3 2.5-7.1 4.6-11.4 6.3-7.3 3-15.2 4.6-23.2 5.1-8.9.5-18.1-.1-26.2-3.1-6.1-2.3-11-6.4-14.3-12.3-.6-1.1-1.2-2.2-1.6-3.4-1.8.8-3.8 2.2-5.3 4.6z"/>
  <path fill="#00ACD3" d="M28.4 52.7h9.8v9.8h-9.8v-9.8zm.8.8h.8v8.1h-.8v-8.1zm1.5 0h.8v8.1h-.8v-8.1zm1.5 0h.8v8.1h-.8v-8.1zm1.5 0h.8v8.1h-.8v-8.1zm1.5 0h.8v8.1h-.8v-8.1zm1.6 0h.8v8.1h-.8v-8.1zM39.6 52.7h9.8v9.8h-9.8v-9.8zm.9.8h.8v8.1h-.8v-8.1zm1.5 0h.8v8.1h-.8v-8.1zm1.4 0h.8v8.1h-.8v-8.1zm1.5 0h.8v8.1h-.8v-8.1zm1.5 0h.8v8.1h-.8v-8.1zm1.6 0h.8v8.1h-.8v-8.1zM50.9 52.7h9.8v9.8h-9.8v-9.8zm.8.8h.8v8.1h-.8v-8.1zm1.5 0h.8v8.1h-.8v-8.1zm1.5 0h.8v8.1h-.8v-8.1zm1.5 0h.8v8.1h-.8v-8.1zm1.5 0h.8v8.1h-.8v-8.1zm1.6 0h.8v8.1h-.8v-8.1zM62.2 52.7H72v9.8h-9.8v-9.8zm.8.8h.8v8.1H63v-8.1zm1.5 0h.8v8.1h-.8v-8.1zm1.4 0h.8v8.1h-.8v-8.1zm1.5 0h.8v8.1h-.8v-8.1zm1.5 0h.8v8.1h-.8v-8.1zm1.6 0h.8v8.1h-.8v-8.1zM73.5 52.7h9.8v9.8h-9.8v-9.8zm.8.8h.8v8.1h-.8v-8.1zm1.4 0h.8v8.1h-.8v-8.1zm1.5 0h.8v8.1h-.8v-8.1zm1.5 0h.8v8.1h-.8v-8.1zm1.5 0h.8v8.1h-.8v-8.1zm1.6 0h.8v8.1h-.8v-8.1zM39.6 41.5h9.8v9.8h-9.8v-9.8zm.9.8h.8v8.1h-.8v-8.1zm1.5 0h.8v8.1h-.8v-8.1zm1.4 0h.8v8.1h-.8v-8.1zm1.5 0h.8v8.1h-.8v-8.1zm1.5 0h.8v8.1h-.8v-8.1zm1.6 0h.8v8.1h-.8v-8.1zM50.9 41.5h9.8v9.8h-9.8v-9.8zm.8.8h.8v8.1h-.8v-8.1zm1.5 0h.8v8.1h-.8v-8.1zm1.5 0h.8v8.1h-.8v-8.1zm1.5 0h.8v8.1h-.8v-8.1zm1.5 0h.8v8.1h-.8v-8.1zm1.6 0h.8v8.1h-.8v-8.1zM62.2 41.5H72v9.8h-9.8v-9.8zm.8.8h.8v8.1H63v-8.1zm1.5 0h.8v8.1h-.8v-8.1zm1.4 0h.8v8.1h-.8v-8.1zm1.5 0h.8v8.1h-.8v-8.1zm1.5 0h.8v8.1h-.8v-8.1zm1.6 0h.8v8.1h-.8v-8.1zM62.2 30.2H72V40h-9.8v-9.8zm.8.8h.8v8.1H63V31zm1.5 0h.8v8.1h-.8V31zm1.4 0h.8v8.1h-.8V31zm1.5 0h.8v8.1h-.8V31zm1.5 0h.8v8.1h-.8V31zm1.6 0h.8v8.1h-.8V31z"/>
</svg>
