<svg xmlns="http://www.w3.org/2000/svg" viewBox="0 0 512 512" fill="none">
  <path fill="url(#a)" d="M272.5 6.5c-5-5-14.5-2.5-17.5 4.5-3.5 9.5-6.5 21-8.5 34.5-3.5 24-4.5 53.5-4.5 88 0 34.5 1 74.5 3 120-40.5-37-70-77.5-88.5-121.5-4-9.5-17.5-8-20.5 2-3 10-5.5 21.5-7.5 34.5-3.5 23-5.5 50-6.5 81s-.5 66 1 103.5c1.5 37.5 4.5 72.5 9 105 15.5 30 38.5 55.5 69 76.5 30.5 21 65 32 103.5 33 38.5 1 74.5-8 108-27s59-44.5 76.5-77c7-20 12.5-42.5 16.5-67.5s7-50.5 9-76.5 3-50.5 3-73.5-.5-42-1.5-57c-1-15-2-24-3-27-2-5.5-6.5-7.5-13.5-6s-17 5.5-30 12-30.5 16.5-52.5 30-48.5 30-79.5 49.5c9.5-50.5 13-96.5 10.5-138-2.5-41.5-11.5-76.5-27-105Z"/>
  <path fill="url(#b)" d="M377 338.5c-3.5 20.5-9.5 38.5-18 54-14 25.5-33.5 45.5-58.5 60s-52.5 21.5-82.5 21c-32-1-60.5-11.5-85.5-31.5s-42.5-46.5-52.5-79.5c1.5 37.5 4.5 72.5 9 105 15.5 30 38.5 55.5 69 76.5 30.5 21 65 32 103.5 33 38.5 1 74.5-8 108-27s59-44.5 76.5-77c7-20 12.5-42.5 16.5-67.5-15.5 12.5-39 24.5-70.5 36-6.5-25.5-11.5-55-15-88.5v-.5Z"/>
  <path fill="url(#c)" d="M245.5 251c4-30.5 5-64.5 3-102-40.5-37-70-77.5-88.5-121.5-4-9.5-17.5-8-20.5 2-3 10-5.5 21.5-7.5 34.5-3.5 23-5.5 50-6.5 81s-.5 66 1 103.5c.5 12.5 1.5 25 2.5 37.5 10-10 24.5-23.5 43.5-40.5s45.5-29.5 79.5-27.5c-5 11.5-7.5 22.5-7.5 33Z"/>
  <defs>
    <linearGradient id="a" x1="128.5" x2="446.5" y1="6.5" y2="519" gradientUnits="userSpaceOnUse">
      <stop stop-color="#FF5E14"/>
      <stop offset="1" stop-color="#FF9C14"/>
    </linearGradient>
    <linearGradient id="b" x1="128.5" x2="446.5" y1="6.5" y2="519" gradientUnits="userSpaceOnUse">
      <stop stop-color="#FF3D00"/>
      <stop offset="1" stop-color="#FF7800"/>
    </linearGradient>
    <linearGradient id="c" x1="128.5" x2="446.5" y1="6.5" y2="519" gradientUnits="userSpaceOnUse">
      <stop stop-color="#FFCE00"/>
      <stop offset="1" stop-color="#FF9C00"/>
    </linearGradient>
  </defs>
</svg>
