<svg xmlns="http://www.w3.org/2000/svg" viewBox="0 0 128 128">
  <path fill="#326CE5" d="M64 1.6c-1.9 0-3.7.6-5.2 1.7L16.5 30.9c-3.1 2.1-5 5.6-5 9.3v45.7c0 3.8 1.9 7.3 5.1 9.4l42.2 27.6c3.1 2 7 2.1 10.2.1l42.5-27.3c3.2-2.1 5.1-5.6 5.1-9.4V40c0-3.7-1.9-7.2-5-9.2L69.2 3.3c-1.5-1.1-3.4-1.7-5.2-1.7z"/>
  <path fill="#fff" d="M64 12c-.7 0-1.4.2-2 .6L23.5 36.5c-1.2.8-2 2.2-2 3.6v43.7c0 1.5.8 2.9 2 3.7l38.5 25.6c1.2.8 2.7.8 3.9 0l38.5-25.4c1.2-.8 2-2.2 2-3.7V40c0-1.5-.8-2.9-2-3.6L66 12.6c-.6-.4-1.3-.6-2-.6zm-.4 14.9h.8c.4 0 .9.2 1.1.6l.1.2 2.8 16.3.7-.1c3.4-.3 6.8.4 9.8 2l.6.4 12.3-11.1.2-.1c.4-.2.8-.3 1.2-.2.5.1.9.4 1.1.8l.1.1 5.6 8.3c.4.6.2 1.5-.4 2l-.1.1-13.8 8.8.3.7c1.4 3.1 1.9 6.6 1.3 10l-.2.7 13.5 4.3.2.1c.6.3 1 1 .9 1.7l-.1.3-2.8 9.6c-.2.7-.9 1.2-1.6 1.1l-.2-.1-14.4-4.5-.4.6c-2.1 2.8-5 4.9-8.2 6l-.7.2 2 16.3v.2c0 .7-.5 1.3-1.2 1.5l-.2.1h-10c-.7 0-1.4-.5-1.5-1.2v-.2l2-16.5-.7-.2c-3.2-1.2-6-3.2-8.1-6l-.4-.6-14.5 4.5h-.2c-.7 0-1.3-.4-1.5-1.1l-.1-.3-2.8-9.6c-.2-.7.1-1.5.8-1.8l.2-.1 13.6-4.3-.1-.8c-.5-3.4 0-6.8 1.3-9.9l.4-.7L31.2 45l-.1-.1c-.5-.5-.6-1.3-.3-1.9l.1-.2 5.6-8.3c.4-.6 1.2-.8 1.9-.5l.2.1 12.3 11 .6-.3c2.9-1.6 6.3-2.4 9.7-2.1l.8.1 2.8-16.2v-.2c.1-.6.5-1.1 1.1-1.3.2-.1.4-.1.5-.1zM64 51c-7.2 0-13 5.8-13 13s5.8 13 13 13 13-5.8 13-13-5.8-13-13-13z"/>
</svg>
