<svg xmlns="http://www.w3.org/2000/svg" viewBox="0 0 128 128">
  <path fill="#362D59" d="M74.2 18.6c-2.7-4.7-9.5-4.7-12.2 0L45.3 47.3c8.9 5.1 14.8 14.5 14.8 25.2v8.3h8.3c0-18.3-11.3-34-27.3-40.5l10.4-18c9.5 4 17.5 10.8 23.1 19.3 5.6 8.6 8.6 18.6 8.6 29v10.2h24.9L74.2 18.6z"/>
  <path fill="#362D59" d="M35.9 80.8c0-5.5-2.2-10.5-5.7-14.2L19.8 85c2.3 1.1 4.8 1.7 7.4 1.7 4.8-.1 8.7-2.6 8.7-5.9zm-21.3 8.8c-2.7 4.7.7 10.6 6.1 10.6h10.7c-10.3 0-18.6-8.3-18.6-18.6 0-3.3.9-6.5 2.5-9.3l9.7 5.6c-.3 1.2-.4 2.4-.4 3.7 0 5.4 3.1 10.1 7.6 12.5l-8.3 14.4c-6-3.4-10.5-8.8-12.6-15.2l3.3-3.7z"/>
</svg>
